<?xml version="1.0" encoding="UTF-8"?>
<svg width="27px" height="18px" viewBox="0 0 27 18" version="1.1" xmlns="http://www.w3.org/2000/svg" xmlns:xlink="http://www.w3.org/1999/xlink">
    <!-- Generator: Sketch 51.3 (57544) - http://www.bohemiancoding.com/sketch -->
    <title>Group</title>
    <desc>Created with Sketch.</desc>
    <defs></defs>
    <g id="Page-1" stroke="none" stroke-width="1" fill="none" fill-rule="evenodd" opacity="0.599999964">
        <g id="All-delivery-modes-available" transform="translate(-192.000000, -1023.000000)" fill="#000000" fill-rule="nonzero">
            <g id="Group-10" transform="translate(20.000000, 814.000000)">
                <g id="Group-3" transform="translate(0.000000, 202.000000)">
                    <g id="noun_cash_871841" transform="translate(172.000000, 7.000000)">
                        <g id="Group">
                            <path d="M0.643902439,13.5 L21.2487805,13.5 C21.6029268,13.5 21.8926829,13.2107143 21.8926829,12.8571429 L21.8926829,0.642857143 C21.8926829,0.289285714 21.6029268,0 21.2487805,0 L0.643902439,0 C0.289756098,0 0,0.289285714 0,0.642857143 L0,12.8571429 C0,13.2107143 0.289756098,13.5 0.643902439,13.5 Z M1.28780488,1.28571429 L20.604878,1.28571429 L20.604878,12.2142857 L1.28780488,12.2142857 L1.28780488,1.28571429 Z" id="Shape"></path>
                            <rect id="Rectangle-path" x="2.57560976" y="2.25" width="2.57560976" height="1.28571429"></rect>
                            <rect id="Rectangle-path" x="16.7414634" y="9.64285714" width="2.57560976" height="1.28571429"></rect>
                            <path d="M10.9463415,2.57142857 C8.62829268,2.57142857 6.76097561,4.43571429 6.76097561,6.75 C6.76097561,9.06428571 8.62829268,10.9285714 10.9463415,10.9285714 C13.2643902,10.9285714 15.1317073,9.06428571 15.1317073,6.75 C15.1317073,4.43571429 13.2643902,2.57142857 10.9463415,2.57142857 Z M10.9463415,9.64285714 C9.33658537,9.64285714 8.04878049,8.35714286 8.04878049,6.75 C8.04878049,5.14285714 9.33658537,3.85714286 10.9463415,3.85714286 C12.5560976,3.85714286 13.8439024,5.14285714 13.8439024,6.75 C13.8439024,8.35714286 12.5560976,9.64285714 10.9463415,9.64285714 Z" id="Shape"></path>
                            <path d="M24.1463415,15.1071429 L24.1463415,2.89285714 C24.1463415,2.53928571 23.8565854,2.25 23.502439,2.25 C23.1482927,2.25 22.8585366,2.53928571 22.8585366,2.89285714 L22.8585366,14.4642857 L2.89756098,14.4642857 C2.54341463,14.4642857 2.25365854,14.7535714 2.25365854,15.1071429 C2.25365854,15.4607143 2.54341463,15.75 2.89756098,15.75 L23.502439,15.75 C23.8565854,15.75 24.1463415,15.4607143 24.1463415,15.1071429 Z" id="Shape"></path>
                            <path d="M25.1121951,5.14285714 L25.1121951,16.7142857 L5.15121951,16.7142857 C4.79707317,16.7142857 4.50731707,17.0035714 4.50731707,17.3571429 C4.50731707,17.7107143 4.79707317,18 5.15121951,18 L25.7560976,18 C26.1102439,18 26.4,17.7107143 26.4,17.3571429 L26.4,5.14285714 C26.4,4.78928571 26.1102439,4.5 25.7560976,4.5 C25.4019512,4.5 25.1121951,4.78928571 25.1121951,5.14285714 Z" id="Shape"></path>
                        </g>
                    </g>
                </g>
            </g>
        </g>
    </g>
</svg>