<svg width="33" height="32" viewBox="0 0 33 32" fill="none" xmlns="http://www.w3.org/2000/svg">
<circle cx="17" cy="16" r="8" fill="#FBE8EF"/>
<path d="M17.1685 8.01953C21.3944 8.01953 24.8201 11.4453 24.8201 15.6712C24.8201 19.897 21.3944 23.3228 17.1685 23.3228C15.7572 23.3228 14.4352 22.9407 13.3002 22.2744M13.9933 8.70737C13.0061 9.1582 12.1315 9.81277 11.4233 10.6173C10.2366 11.9652 9.51685 13.7341 9.51685 15.6712C9.51685 17.0769 9.89593 18.3941 10.5574 19.5261" stroke="#4A4A4A" stroke-linecap="round" stroke-linejoin="round"/>
<path d="M15.1849 16.1915L16.4365 17.4431" stroke="#4A4A4A" stroke-linecap="round" stroke-linejoin="round"/>
<path d="M19.0107 14.9392L16.4365 17.4427" stroke="#4A4A4A" stroke-linecap="round" stroke-linejoin="round"/>
<path d="M30.5962 17.9566C30.5962 20.844 29.0672 24.1026 26.5126 26.6572C23.958 29.2118 20.4933 30.6469 16.8805 30.6469C13.2678 30.6469 9.80305 29.2118 7.24846 26.6572C4.69387 24.1026 3.16602 20.8475 3.16602 17.2347" stroke="#4A4A4A" stroke-linecap="round"/>
<path d="M1 19.5862L3.0491 17.0248L5.61047 19.5862" stroke="#4A4A4A" stroke-linecap="round" stroke-linejoin="round"/>
<path d="M3.37686 13.1869C3.83885 9.69741 5.63364 6.52225 8.38505 4.32692C11.1365 2.13159 14.6309 1.08654 18.1358 1.41081C21.6407 1.73509 24.8841 3.40352 27.186 6.06638C29.1722 8.364 30.3244 11.248 30.4836 14.2539" stroke="#4A4A4A" stroke-linecap="round"/>
<path d="M32.3898 11.901L31.0099 14.8768L27.9121 12.9994" stroke="#4A4A4A" stroke-linecap="round" stroke-linejoin="round"/>
</svg>
