<svg fill="none" height="687" viewBox="0 0 1440 687" width="1440" xmlns="http://www.w3.org/2000/svg" xmlns:xlink="http://www.w3.org/1999/xlink"><clipPath id="a"><path d="m0 0h1440v687h-1440z"/></clipPath><g clip-path="url(#a)"><path d="m0 0h1440v687h-1440z" fill="#2a2d6e"/><path d="m203.684 594.068-49.611 49.611v86.32" stroke="#2e3577" stroke-miterlimit="10" stroke-width="2.66011"/><path d="m324.187 729.999v-573.787" stroke="#2e3577" stroke-miterlimit="10" stroke-width="2.66011"/><g fill="#2e3577"><path d="m380.183 422.224c2.13 0 3.857-1.727 3.857-3.857s-1.727-3.857-3.857-3.857-3.857 1.727-3.857 3.857 1.727 3.857 3.857 3.857z"/><path d="m403.326 422.224c2.13 0 3.857-1.726 3.857-3.857 0-2.13-1.727-3.857-3.857-3.857s-3.857 1.727-3.857 3.857c0 2.131 1.727 3.857 3.857 3.857z"/><path d="m426.336 422.224c2.13 0 3.857-1.726 3.857-3.857 0-2.13-1.727-3.857-3.857-3.857-2.131 0-3.857 1.727-3.857 3.857 0 2.131 1.726 3.857 3.857 3.857z"/><path d="m449.346 422.224c2.13 0 3.857-1.726 3.857-3.857 0-2.13-1.727-3.857-3.857-3.857-2.131 0-3.857 1.727-3.857 3.857 0 2.131 1.726 3.857 3.857 3.857z"/><path d="m472.489 422.224c2.13 0 3.857-1.726 3.857-3.857 0-2.13-1.727-3.857-3.857-3.857-2.131 0-3.857 1.727-3.857 3.857 0 2.131 1.726 3.857 3.857 3.857z"/><path d="m495.499 422.224c2.13 0 3.857-1.726 3.857-3.857 0-2.13-1.727-3.857-3.857-3.857s-3.857 1.727-3.857 3.857c0 2.131 1.727 3.857 3.857 3.857z"/><path d="m380.183 445.633c2.13 0 3.857-1.727 3.857-3.857s-1.727-3.857-3.857-3.857-3.857 1.727-3.857 3.857 1.727 3.857 3.857 3.857z"/><path d="m403.326 445.633c2.13 0 3.857-1.727 3.857-3.857s-1.727-3.857-3.857-3.857-3.857 1.727-3.857 3.857 1.727 3.857 3.857 3.857z"/><path d="m426.336 445.633c2.13 0 3.857-1.727 3.857-3.857s-1.727-3.857-3.857-3.857c-2.131 0-3.857 1.727-3.857 3.857s1.726 3.857 3.857 3.857z"/><path d="m449.346 445.633c2.13 0 3.857-1.727 3.857-3.857s-1.727-3.857-3.857-3.857c-2.131 0-3.857 1.727-3.857 3.857s1.726 3.857 3.857 3.857z"/><path d="m472.489 445.633c2.13 0 3.857-1.727 3.857-3.857s-1.727-3.857-3.857-3.857c-2.131 0-3.857 1.727-3.857 3.857s1.726 3.857 3.857 3.857z"/><path d="m495.499 445.633c2.13 0 3.857-1.727 3.857-3.857s-1.727-3.857-3.857-3.857-3.857 1.727-3.857 3.857 1.727 3.857 3.857 3.857z"/><path d="m380.183 469.042c2.13 0 3.857-1.727 3.857-3.857s-1.727-3.857-3.857-3.857-3.857 1.727-3.857 3.857 1.727 3.857 3.857 3.857z"/><path d="m403.326 469.042c2.13 0 3.857-1.727 3.857-3.857s-1.727-3.857-3.857-3.857-3.857 1.727-3.857 3.857 1.727 3.857 3.857 3.857z"/><path d="m426.336 469.042c2.13 0 3.857-1.727 3.857-3.857s-1.727-3.857-3.857-3.857c-2.131 0-3.857 1.727-3.857 3.857s1.726 3.857 3.857 3.857z"/><path d="m449.346 469.042c2.13 0 3.857-1.727 3.857-3.857s-1.727-3.857-3.857-3.857c-2.131 0-3.857 1.727-3.857 3.857s1.726 3.857 3.857 3.857z"/><path d="m472.489 469.042c2.13 0 3.857-1.727 3.857-3.857s-1.727-3.857-3.857-3.857c-2.131 0-3.857 1.727-3.857 3.857s1.726 3.857 3.857 3.857z"/><path d="m495.499 469.042c2.13 0 3.857-1.727 3.857-3.857s-1.727-3.857-3.857-3.857-3.857 1.727-3.857 3.857 1.727 3.857 3.857 3.857z"/><path d="m380.183 492.451c2.13 0 3.857-1.727 3.857-3.857s-1.727-3.857-3.857-3.857-3.857 1.727-3.857 3.857 1.727 3.857 3.857 3.857z"/><path d="m403.326 492.451c2.13 0 3.857-1.727 3.857-3.857s-1.727-3.857-3.857-3.857-3.857 1.727-3.857 3.857 1.727 3.857 3.857 3.857z"/><path d="m426.336 492.451c2.13 0 3.857-1.727 3.857-3.857s-1.727-3.857-3.857-3.857c-2.131 0-3.857 1.727-3.857 3.857s1.726 3.857 3.857 3.857z"/><path d="m449.346 492.451c2.13 0 3.857-1.727 3.857-3.857s-1.727-3.857-3.857-3.857c-2.131 0-3.857 1.727-3.857 3.857s1.726 3.857 3.857 3.857z"/><path d="m472.489 492.451c2.13 0 3.857-1.727 3.857-3.857s-1.727-3.857-3.857-3.857c-2.131 0-3.857 1.727-3.857 3.857s1.726 3.857 3.857 3.857z"/><path d="m495.499 492.451c2.13 0 3.857-1.727 3.857-3.857s-1.727-3.857-3.857-3.857-3.857 1.727-3.857 3.857 1.727 3.857 3.857 3.857z"/><path d="m380.183 515.86c2.13 0 3.857-1.727 3.857-3.857s-1.727-3.857-3.857-3.857-3.857 1.727-3.857 3.857 1.727 3.857 3.857 3.857z"/><path d="m403.326 515.86c2.13 0 3.857-1.727 3.857-3.857s-1.727-3.857-3.857-3.857-3.857 1.727-3.857 3.857 1.727 3.857 3.857 3.857z"/><path d="m426.336 515.86c2.13 0 3.857-1.727 3.857-3.857s-1.727-3.857-3.857-3.857c-2.131 0-3.857 1.727-3.857 3.857s1.726 3.857 3.857 3.857z"/><path d="m449.346 515.86c2.13 0 3.857-1.727 3.857-3.857s-1.727-3.857-3.857-3.857c-2.131 0-3.857 1.727-3.857 3.857s1.726 3.857 3.857 3.857z"/><path d="m472.489 515.86c2.13 0 3.857-1.727 3.857-3.857s-1.727-3.857-3.857-3.857c-2.131 0-3.857 1.727-3.857 3.857s1.726 3.857 3.857 3.857z"/><path d="m495.499 515.86c2.13 0 3.857-1.727 3.857-3.857s-1.727-3.857-3.857-3.857-3.857 1.727-3.857 3.857 1.727 3.857 3.857 3.857z"/><path d="m380.183 539.403c2.13 0 3.857-1.727 3.857-3.858 0-2.13-1.727-3.857-3.857-3.857s-3.857 1.727-3.857 3.857c0 2.131 1.727 3.858 3.857 3.858z"/><path d="m403.326 539.402c2.13 0 3.857-1.727 3.857-3.857s-1.727-3.857-3.857-3.857-3.857 1.727-3.857 3.857 1.727 3.857 3.857 3.857z"/><path d="m426.336 539.402c2.13 0 3.857-1.727 3.857-3.857s-1.727-3.857-3.857-3.857c-2.131 0-3.857 1.727-3.857 3.857s1.726 3.857 3.857 3.857z"/><path d="m449.346 539.402c2.13 0 3.857-1.727 3.857-3.857s-1.727-3.857-3.857-3.857c-2.131 0-3.857 1.727-3.857 3.857s1.726 3.857 3.857 3.857z"/><path d="m472.489 539.402c2.13 0 3.857-1.727 3.857-3.857s-1.727-3.857-3.857-3.857c-2.131 0-3.857 1.727-3.857 3.857s1.726 3.857 3.857 3.857z"/><path d="m495.499 539.402c2.13 0 3.857-1.727 3.857-3.857s-1.727-3.857-3.857-3.857-3.857 1.727-3.857 3.857 1.727 3.857 3.857 3.857z"/><path d="m1376.79 63.375c2.14 0 3.86-1.727 3.86-3.8572 0-2.1303-1.72-3.8572-3.86-3.8572-2.13 0-3.85 1.7269-3.85 3.8572 0 2.1302 1.72 3.8572 3.85 3.8572z"/><path d="m1399.94 63.3749c2.13 0 3.86-1.7269 3.86-3.8572 0-2.1302-1.73-3.8571-3.86-3.8571s-3.86 1.7269-3.86 3.8571c0 2.1303 1.73 3.8572 3.86 3.8572z"/><path d="m1422.95 63.3749c2.13 0 3.86-1.7269 3.86-3.8572 0-2.1302-1.73-3.8571-3.86-3.8571s-3.86 1.7269-3.86 3.8571c0 2.1303 1.73 3.8572 3.86 3.8572z"/><path d="m1376.79 86.9169c2.14 0 3.86-1.7269 3.86-3.8571 0-2.1303-1.72-3.8572-3.86-3.8572-2.13 0-3.85 1.7269-3.85 3.8572 0 2.1302 1.72 3.8571 3.85 3.8571z"/><path d="m1399.94 86.9169c2.13 0 3.86-1.7269 3.86-3.8572 0-2.1302-1.73-3.8571-3.86-3.8571s-3.86 1.7269-3.86 3.8571c0 2.1303 1.73 3.8572 3.86 3.8572z"/><path d="m1422.95 86.9169c2.13 0 3.86-1.7269 3.86-3.8572 0-2.1302-1.73-3.8571-3.86-3.8571s-3.86 1.7269-3.86 3.8571c0 2.1303 1.73 3.8572 3.86 3.8572z"/><path d="m1376.79 110.326c2.14 0 3.86-1.727 3.86-3.857 0-2.131-1.72-3.858-3.86-3.858-2.13 0-3.85 1.727-3.85 3.858 0 2.13 1.72 3.857 3.85 3.857z"/><path d="m1399.94 110.326c2.13 0 3.86-1.727 3.86-3.858 0-2.13-1.73-3.857-3.86-3.857s-3.86 1.727-3.86 3.857c0 2.131 1.73 3.858 3.86 3.858z"/><path d="m1422.95 110.326c2.13 0 3.86-1.727 3.86-3.858 0-2.13-1.73-3.857-3.86-3.857s-3.86 1.727-3.86 3.857c0 2.131 1.73 3.858 3.86 3.858z"/><path d="m1376.79 133.735c2.14 0 3.86-1.727 3.86-3.857s-1.72-3.857-3.86-3.857c-2.13 0-3.85 1.727-3.85 3.857s1.72 3.857 3.85 3.857z"/><path d="m1399.94 133.735c2.13 0 3.86-1.727 3.86-3.857s-1.73-3.857-3.86-3.857-3.86 1.727-3.86 3.857 1.73 3.857 3.86 3.857z"/><path d="m1422.95 133.735c2.13 0 3.86-1.727 3.86-3.857s-1.73-3.857-3.86-3.857-3.86 1.727-3.86 3.857 1.73 3.857 3.86 3.857z"/><path d="m1376.79 157.144c2.14 0 3.86-1.727 3.86-3.857 0-2.131-1.72-3.857-3.86-3.857-2.13 0-3.85 1.726-3.85 3.857 0 2.13 1.72 3.857 3.85 3.857z"/><path d="m1399.94 157.144c2.13 0 3.86-1.727 3.86-3.857 0-2.131-1.73-3.857-3.86-3.857s-3.86 1.726-3.86 3.857c0 2.13 1.73 3.857 3.86 3.857z"/><path d="m1422.95 157.144c2.13 0 3.86-1.727 3.86-3.857 0-2.131-1.73-3.857-3.86-3.857s-3.86 1.726-3.86 3.857c0 2.13 1.73 3.857 3.86 3.857z"/><path d="m1376.79 180.553c2.14 0 3.86-1.727 3.86-3.857s-1.72-3.857-3.86-3.857c-2.13 0-3.85 1.727-3.85 3.857s1.72 3.857 3.85 3.857z"/><path d="m1399.94 180.553c2.13 0 3.86-1.727 3.86-3.857s-1.73-3.857-3.86-3.857-3.86 1.727-3.86 3.857 1.73 3.857 3.86 3.857z"/><path d="m1422.95 180.553c2.13 0 3.86-1.727 3.86-3.857s-1.73-3.857-3.86-3.857-3.86 1.727-3.86 3.857 1.73 3.857 3.86 3.857z"/><path d="m689.288 92.5031c2.13 0 3.857-1.7269 3.857-3.8571 0-2.1303-1.727-3.8572-3.857-3.8572s-3.857 1.7269-3.857 3.8572c0 2.1302 1.727 3.8571 3.857 3.8571z"/><path d="m689.288 115.513c2.13 0 3.857-1.727 3.857-3.857s-1.727-3.857-3.857-3.857-3.857 1.727-3.857 3.857 1.727 3.857 3.857 3.857z"/><path d="m665.879 92.5031c2.13 0 3.857-1.7269 3.857-3.8571 0-2.1303-1.727-3.8572-3.857-3.8572s-3.857 1.7269-3.857 3.8572c0 2.1302 1.727 3.8571 3.857 3.8571z"/><path d="m665.879 115.513c2.13 0 3.857-1.727 3.857-3.857s-1.727-3.857-3.857-3.857-3.857 1.727-3.857 3.857 1.727 3.857 3.857 3.857z"/><path d="m642.47 92.5031c2.13 0 3.857-1.7269 3.857-3.8571 0-2.1303-1.727-3.8572-3.857-3.8572s-3.857 1.7269-3.857 3.8572c0 2.1302 1.727 3.8571 3.857 3.8571z"/><path d="m642.47 115.513c2.13 0 3.857-1.727 3.857-3.857s-1.727-3.857-3.857-3.857-3.857 1.727-3.857 3.857 1.727 3.857 3.857 3.857z"/><path d="m618.928 92.5031c2.13 0 3.857-1.7269 3.857-3.8571 0-2.1303-1.727-3.8572-3.857-3.8572s-3.857 1.7269-3.857 3.8572c0 2.1302 1.727 3.8571 3.857 3.8571z"/><path d="m618.928 115.513c2.13 0 3.857-1.727 3.857-3.857s-1.727-3.857-3.857-3.857-3.857 1.727-3.857 3.857 1.727 3.857 3.857 3.857z"/><path d="m595.519 92.5031c2.13 0 3.857-1.7269 3.857-3.8571 0-2.1303-1.727-3.8572-3.857-3.8572s-3.857 1.7269-3.857 3.8572c0 2.1302 1.727 3.8571 3.857 3.8571z"/><path d="m595.519 115.513c2.13 0 3.857-1.727 3.857-3.857s-1.727-3.857-3.857-3.857-3.857 1.727-3.857 3.857 1.727 3.857 3.857 3.857z"/><path d="m572.11 92.5031c2.13 0 3.857-1.7269 3.857-3.8571 0-2.1303-1.727-3.8572-3.857-3.8572s-3.857 1.7269-3.857 3.8572c0 2.1302 1.727 3.8571 3.857 3.8571z"/><path d="m572.11 115.513c2.13 0 3.857-1.727 3.857-3.857s-1.727-3.857-3.857-3.857-3.857 1.727-3.857 3.857 1.727 3.857 3.857 3.857z"/><path d="m-3.67177 236.016c2.13026 0 3.85717-1.727 3.85717-3.857s-1.72691-3.857-3.85717-3.857c-2.13025 0-3.85716 1.727-3.85716 3.857s1.72691 3.857 3.85716 3.857z"/><path d="m19.3382 236.016c2.1303 0 3.8572-1.727 3.8572-3.857s-1.7269-3.857-3.8572-3.857c-2.1302 0-3.8571 1.727-3.8571 3.857s1.7269 3.857 3.8571 3.857z"/><path d="m42.3482 236.016c2.1303 0 3.8572-1.727 3.8572-3.857s-1.7269-3.857-3.8572-3.857c-2.1302 0-3.8571 1.727-3.8571 3.857s1.7269 3.857 3.8571 3.857z"/><path d="m65.4913 236.016c2.1303 0 3.8572-1.727 3.8572-3.857s-1.7269-3.857-3.8572-3.857c-2.1302 0-3.8571 1.727-3.8571 3.857s1.7269 3.857 3.8571 3.857z"/><path d="m88.5012 236.016c2.1303 0 3.8572-1.727 3.8572-3.857s-1.7269-3.857-3.8572-3.857c-2.1302 0-3.8572 1.727-3.8572 3.857s1.727 3.857 3.8572 3.857z"/><path d="m111.511 236.016c2.13 0 3.857-1.727 3.857-3.857s-1.727-3.857-3.857-3.857-3.857 1.727-3.857 3.857 1.727 3.857 3.857 3.857z"/><path d="m134.521 236.016c2.13 0 3.857-1.727 3.857-3.857s-1.727-3.857-3.857-3.857-3.857 1.727-3.857 3.857 1.727 3.857 3.857 3.857z"/><path d="m157.664 236.016c2.131 0 3.857-1.727 3.857-3.857s-1.726-3.857-3.857-3.857c-2.13 0-3.857 1.727-3.857 3.857s1.727 3.857 3.857 3.857z"/><path d="m180.674 236.016c2.131 0 3.857-1.727 3.857-3.857s-1.726-3.857-3.857-3.857c-2.13 0-3.857 1.727-3.857 3.857s1.727 3.857 3.857 3.857z"/><path d="m203.684 236.016c2.131 0 3.857-1.727 3.857-3.857s-1.726-3.857-3.857-3.857c-2.13 0-3.857 1.727-3.857 3.857s1.727 3.857 3.857 3.857z"/><path d="m-3.67177 259.558c2.13026 0 3.85717-1.727 3.85717-3.857s-1.72691-3.857-3.85717-3.857c-2.13025 0-3.85716 1.727-3.85716 3.857s1.72691 3.857 3.85716 3.857z"/><path d="m19.3382 259.558c2.1303 0 3.8572-1.727 3.8572-3.857s-1.7269-3.857-3.8572-3.857c-2.1302 0-3.8571 1.727-3.8571 3.857s1.7269 3.857 3.8571 3.857z"/><path d="m42.3482 259.558c2.1303 0 3.8572-1.727 3.8572-3.857s-1.7269-3.857-3.8572-3.857c-2.1302 0-3.8571 1.727-3.8571 3.857s1.7269 3.857 3.8571 3.857z"/><path d="m65.4913 259.558c2.1303 0 3.8572-1.727 3.8572-3.857s-1.7269-3.857-3.8572-3.857c-2.1302 0-3.8571 1.727-3.8571 3.857s1.7269 3.857 3.8571 3.857z"/><path d="m88.5012 259.558c2.1303 0 3.8572-1.727 3.8572-3.857s-1.7269-3.857-3.8572-3.857c-2.1302 0-3.8572 1.727-3.8572 3.857s1.727 3.857 3.8572 3.857z"/><path d="m111.511 259.558c2.13 0 3.857-1.727 3.857-3.857s-1.727-3.857-3.857-3.857-3.857 1.727-3.857 3.857 1.727 3.857 3.857 3.857z"/><path d="m134.521 259.558c2.13 0 3.857-1.727 3.857-3.857s-1.727-3.857-3.857-3.857-3.857 1.727-3.857 3.857 1.727 3.857 3.857 3.857z"/><path d="m157.664 259.558c2.131 0 3.857-1.727 3.857-3.857s-1.726-3.857-3.857-3.857c-2.13 0-3.857 1.727-3.857 3.857s1.727 3.857 3.857 3.857z"/><path d="m180.674 259.558c2.131 0 3.857-1.727 3.857-3.857s-1.726-3.857-3.857-3.857c-2.13 0-3.857 1.727-3.857 3.857s1.727 3.857 3.857 3.857z"/><path d="m203.684 259.558c2.131 0 3.857-1.727 3.857-3.857s-1.726-3.857-3.857-3.857c-2.13 0-3.857 1.727-3.857 3.857s1.727 3.857 3.857 3.857z"/><path d="m-3.67177 282.967c2.13026 0 3.85717-1.727 3.85717-3.857s-1.72691-3.857-3.85717-3.857c-2.13025 0-3.85716 1.727-3.85716 3.857s1.72691 3.857 3.85716 3.857z"/><path d="m19.3382 282.967c2.1303 0 3.8572-1.727 3.8572-3.857s-1.7269-3.857-3.8572-3.857c-2.1302 0-3.8571 1.727-3.8571 3.857s1.7269 3.857 3.8571 3.857z"/><path d="m42.3482 282.967c2.1303 0 3.8572-1.727 3.8572-3.857s-1.7269-3.857-3.8572-3.857c-2.1302 0-3.8571 1.727-3.8571 3.857s1.7269 3.857 3.8571 3.857z"/><path d="m65.4913 282.967c2.1303 0 3.8572-1.727 3.8572-3.857s-1.7269-3.857-3.8572-3.857c-2.1302 0-3.8571 1.727-3.8571 3.857s1.7269 3.857 3.8571 3.857z"/><path d="m88.5012 282.967c2.1303 0 3.8572-1.727 3.8572-3.857s-1.7269-3.857-3.8572-3.857c-2.1302 0-3.8572 1.727-3.8572 3.857s1.727 3.857 3.8572 3.857z"/><path d="m111.511 282.967c2.13 0 3.857-1.727 3.857-3.857s-1.727-3.857-3.857-3.857-3.857 1.727-3.857 3.857 1.727 3.857 3.857 3.857z"/><path d="m134.521 282.967c2.13 0 3.857-1.727 3.857-3.857s-1.727-3.857-3.857-3.857-3.857 1.727-3.857 3.857 1.727 3.857 3.857 3.857z"/><path d="m157.664 282.967c2.131 0 3.857-1.727 3.857-3.857s-1.726-3.857-3.857-3.857c-2.13 0-3.857 1.727-3.857 3.857s1.727 3.857 3.857 3.857z"/><path d="m180.674 282.967c2.131 0 3.857-1.727 3.857-3.857s-1.726-3.857-3.857-3.857c-2.13 0-3.857 1.727-3.857 3.857s1.727 3.857 3.857 3.857z"/><path d="m203.684 282.967c2.131 0 3.857-1.727 3.857-3.857s-1.726-3.857-3.857-3.857c-2.13 0-3.857 1.727-3.857 3.857s1.727 3.857 3.857 3.857z"/><path d="m-3.67177 306.376c2.13026 0 3.85717-1.727 3.85717-3.857s-1.72691-3.857-3.85717-3.857c-2.13025 0-3.85716 1.727-3.85716 3.857s1.72691 3.857 3.85716 3.857z"/><path d="m19.3382 306.376c2.1303 0 3.8572-1.727 3.8572-3.857s-1.7269-3.857-3.8572-3.857c-2.1302 0-3.8571 1.727-3.8571 3.857s1.7269 3.857 3.8571 3.857z"/><path d="m42.3482 306.376c2.1303 0 3.8572-1.727 3.8572-3.857s-1.7269-3.857-3.8572-3.857c-2.1302 0-3.8571 1.727-3.8571 3.857s1.7269 3.857 3.8571 3.857z"/><path d="m65.4913 306.376c2.1303 0 3.8572-1.727 3.8572-3.857s-1.7269-3.857-3.8572-3.857c-2.1302 0-3.8571 1.727-3.8571 3.857s1.7269 3.857 3.8571 3.857z"/><path d="m88.5012 306.376c2.1303 0 3.8572-1.727 3.8572-3.857s-1.7269-3.857-3.8572-3.857c-2.1302 0-3.8572 1.727-3.8572 3.857s1.727 3.857 3.8572 3.857z"/><path d="m111.511 306.376c2.13 0 3.857-1.727 3.857-3.857s-1.727-3.857-3.857-3.857-3.857 1.727-3.857 3.857 1.727 3.857 3.857 3.857z"/><path d="m134.521 306.376c2.13 0 3.857-1.727 3.857-3.857s-1.727-3.857-3.857-3.857-3.857 1.727-3.857 3.857 1.727 3.857 3.857 3.857z"/><path d="m157.664 306.376c2.131 0 3.857-1.727 3.857-3.857s-1.726-3.857-3.857-3.857c-2.13 0-3.857 1.727-3.857 3.857s1.727 3.857 3.857 3.857z"/><path d="m180.674 306.376c2.131 0 3.857-1.727 3.857-3.857s-1.726-3.857-3.857-3.857c-2.13 0-3.857 1.727-3.857 3.857s1.727 3.857 3.857 3.857z"/><path d="m203.684 306.376c2.131 0 3.857-1.727 3.857-3.857s-1.726-3.857-3.857-3.857c-2.13 0-3.857 1.727-3.857 3.857s1.727 3.857 3.857 3.857z"/><path d="m-3.67177 329.785c2.13026 0 3.85717-1.727 3.85717-3.857s-1.72691-3.857-3.85717-3.857c-2.13025 0-3.85716 1.727-3.85716 3.857s1.72691 3.857 3.85716 3.857z"/><path d="m19.3382 329.785c2.1303 0 3.8572-1.727 3.8572-3.857s-1.7269-3.857-3.8572-3.857c-2.1302 0-3.8571 1.727-3.8571 3.857s1.7269 3.857 3.8571 3.857z"/><path d="m42.3482 329.785c2.1303 0 3.8572-1.727 3.8572-3.857s-1.7269-3.857-3.8572-3.857c-2.1302 0-3.8571 1.727-3.8571 3.857s1.7269 3.857 3.8571 3.857z"/><path d="m65.4913 329.785c2.1303 0 3.8572-1.727 3.8572-3.857s-1.7269-3.857-3.8572-3.857c-2.1302 0-3.8571 1.727-3.8571 3.857s1.7269 3.857 3.8571 3.857z"/><path d="m88.5012 329.785c2.1303 0 3.8572-1.727 3.8572-3.857s-1.7269-3.857-3.8572-3.857c-2.1302 0-3.8572 1.727-3.8572 3.857s1.727 3.857 3.8572 3.857z"/><path d="m111.511 329.785c2.13 0 3.857-1.727 3.857-3.857s-1.727-3.857-3.857-3.857-3.857 1.727-3.857 3.857 1.727 3.857 3.857 3.857z"/><path d="m134.521 329.785c2.13 0 3.857-1.727 3.857-3.857s-1.727-3.857-3.857-3.857-3.857 1.727-3.857 3.857 1.727 3.857 3.857 3.857z"/><path d="m157.664 329.785c2.131 0 3.857-1.727 3.857-3.857s-1.726-3.857-3.857-3.857c-2.13 0-3.857 1.727-3.857 3.857s1.727 3.857 3.857 3.857z"/><path d="m180.674 329.785c2.131 0 3.857-1.727 3.857-3.857s-1.726-3.857-3.857-3.857c-2.13 0-3.857 1.727-3.857 3.857s1.727 3.857 3.857 3.857z"/><path d="m203.684 329.785c2.131 0 3.857-1.727 3.857-3.857s-1.726-3.857-3.857-3.857c-2.13 0-3.857 1.727-3.857 3.857s1.727 3.857 3.857 3.857z"/><path d="m-3.67177 353.194c2.13026 0 3.85717-1.727 3.85717-3.857s-1.72691-3.857-3.85717-3.857c-2.13025 0-3.85716 1.727-3.85716 3.857s1.72691 3.857 3.85716 3.857z"/><path d="m19.3382 353.195c2.1303 0 3.8572-1.727 3.8572-3.858 0-2.13-1.7269-3.857-3.8572-3.857-2.1302 0-3.8571 1.727-3.8571 3.857 0 2.131 1.7269 3.858 3.8571 3.858z"/><path d="m42.3482 353.195c2.1303 0 3.8572-1.727 3.8572-3.858 0-2.13-1.7269-3.857-3.8572-3.857-2.1302 0-3.8571 1.727-3.8571 3.857 0 2.131 1.7269 3.858 3.8571 3.858z"/><path d="m65.4913 353.195c2.1303 0 3.8572-1.727 3.8572-3.858 0-2.13-1.7269-3.857-3.8572-3.857-2.1302 0-3.8571 1.727-3.8571 3.857 0 2.131 1.7269 3.858 3.8571 3.858z"/><path d="m88.5012 353.195c2.1303 0 3.8572-1.727 3.8572-3.858 0-2.13-1.7269-3.857-3.8572-3.857-2.1302 0-3.8572 1.727-3.8572 3.857 0 2.131 1.727 3.858 3.8572 3.858z"/><path d="m111.511 353.195c2.13 0 3.857-1.727 3.857-3.858 0-2.13-1.727-3.857-3.857-3.857s-3.857 1.727-3.857 3.857c0 2.131 1.727 3.858 3.857 3.858z"/><path d="m134.521 353.195c2.13 0 3.857-1.727 3.857-3.858 0-2.13-1.727-3.857-3.857-3.857s-3.857 1.727-3.857 3.857c0 2.131 1.727 3.858 3.857 3.858z"/><path d="m157.664 353.195c2.131 0 3.857-1.727 3.857-3.858 0-2.13-1.726-3.857-3.857-3.857-2.13 0-3.857 1.727-3.857 3.857 0 2.131 1.727 3.858 3.857 3.858z"/><path d="m180.674 353.195c2.131 0 3.857-1.727 3.857-3.858 0-2.13-1.726-3.857-3.857-3.857-2.13 0-3.857 1.727-3.857 3.857 0 2.131 1.727 3.858 3.857 3.858z"/><path d="m203.684 353.195c2.131 0 3.857-1.727 3.857-3.858 0-2.13-1.726-3.857-3.857-3.857-2.13 0-3.857 1.727-3.857 3.857 0 2.131 1.727 3.858 3.857 3.858z"/><path d="m1149.22 459.864c2.13 0 3.86-1.726 3.86-3.857 0-2.13-1.73-3.857-3.86-3.857s-3.86 1.727-3.86 3.857c0 2.131 1.73 3.857 3.86 3.857z"/><path d="m1172.23 459.865c2.13 0 3.86-1.727 3.86-3.857 0-2.131-1.73-3.858-3.86-3.858s-3.86 1.727-3.86 3.858c0 2.13 1.73 3.857 3.86 3.857z"/><path d="m1195.37 459.865c2.14 0 3.86-1.727 3.86-3.857 0-2.131-1.72-3.858-3.86-3.858-2.13 0-3.85 1.727-3.85 3.858 0 2.13 1.72 3.857 3.85 3.857z"/><path d="m1218.39 459.865c2.13 0 3.85-1.727 3.85-3.857 0-2.131-1.72-3.858-3.85-3.858-2.14 0-3.86 1.727-3.86 3.858 0 2.13 1.72 3.857 3.86 3.857z"/><path d="m1241.4 459.865c2.13 0 3.85-1.727 3.85-3.857 0-2.131-1.72-3.858-3.85-3.858-2.14 0-3.86 1.727-3.86 3.858 0 2.13 1.72 3.857 3.86 3.857z"/><path d="m1264.54 459.865c2.13 0 3.85-1.727 3.85-3.857 0-2.131-1.72-3.858-3.85-3.858s-3.86 1.727-3.86 3.858c0 2.13 1.73 3.857 3.86 3.857z"/><path d="m1287.55 459.865c2.13 0 3.86-1.727 3.86-3.857 0-2.131-1.73-3.858-3.86-3.858s-3.86 1.727-3.86 3.858c0 2.13 1.73 3.857 3.86 3.857z"/><path d="m1310.56 459.865c2.13 0 3.85-1.727 3.85-3.857 0-2.131-1.72-3.858-3.85-3.858s-3.86 1.727-3.86 3.858c0 2.13 1.73 3.857 3.86 3.857z"/><path d="m1149.22 483.274c2.13 0 3.86-1.727 3.86-3.858 0-2.13-1.73-3.857-3.86-3.857s-3.86 1.727-3.86 3.857c0 2.131 1.73 3.858 3.86 3.858z"/><path d="m1172.23 483.274c2.13 0 3.86-1.727 3.86-3.858 0-2.13-1.73-3.857-3.86-3.857s-3.86 1.727-3.86 3.857c0 2.131 1.73 3.858 3.86 3.858z"/><path d="m1195.37 483.274c2.14 0 3.86-1.727 3.86-3.858 0-2.13-1.72-3.857-3.86-3.857-2.13 0-3.85 1.727-3.85 3.857 0 2.131 1.72 3.858 3.85 3.858z"/><path d="m1218.38 483.274c2.14 0 3.86-1.727 3.86-3.858 0-2.13-1.72-3.857-3.86-3.857-2.13 0-3.85 1.727-3.85 3.857 0 2.131 1.72 3.858 3.85 3.858z"/><path d="m1241.39 483.274c2.14 0 3.86-1.727 3.86-3.858 0-2.13-1.72-3.857-3.86-3.857-2.13 0-3.85 1.727-3.85 3.857 0 2.131 1.72 3.858 3.85 3.858z"/><path d="m1264.54 483.274c2.13 0 3.85-1.727 3.85-3.858 0-2.13-1.72-3.857-3.85-3.857s-3.86 1.727-3.86 3.857c0 2.131 1.73 3.858 3.86 3.858z"/><path d="m1287.55 483.274c2.13 0 3.86-1.727 3.86-3.858 0-2.13-1.73-3.857-3.86-3.857s-3.86 1.727-3.86 3.857c0 2.131 1.73 3.858 3.86 3.858z"/><path d="m1310.56 483.274c2.13 0 3.85-1.727 3.85-3.858 0-2.13-1.72-3.857-3.85-3.857s-3.86 1.727-3.86 3.857c0 2.131 1.73 3.858 3.86 3.858z"/><path d="m1149.22 506.816c2.13 0 3.86-1.727 3.86-3.858 0-2.13-1.73-3.857-3.86-3.857s-3.86 1.727-3.86 3.857c0 2.131 1.73 3.858 3.86 3.858z"/><path d="m1172.23 506.816c2.13 0 3.86-1.727 3.86-3.858 0-2.13-1.73-3.857-3.86-3.857s-3.86 1.727-3.86 3.857c0 2.131 1.73 3.858 3.86 3.858z"/><path d="m1195.37 506.816c2.14 0 3.86-1.727 3.86-3.858 0-2.13-1.72-3.857-3.86-3.857-2.13 0-3.85 1.727-3.85 3.857 0 2.131 1.72 3.858 3.85 3.858z"/><path d="m1218.38 506.816c2.14 0 3.86-1.727 3.86-3.858 0-2.13-1.72-3.857-3.86-3.857-2.13 0-3.85 1.727-3.85 3.857 0 2.131 1.72 3.858 3.85 3.858z"/><path d="m1241.39 506.816c2.14 0 3.86-1.727 3.86-3.858 0-2.13-1.72-3.857-3.86-3.857-2.13 0-3.85 1.727-3.85 3.857 0 2.131 1.72 3.858 3.85 3.858z"/><path d="m1264.54 506.816c2.13 0 3.85-1.727 3.85-3.858 0-2.13-1.72-3.857-3.85-3.857s-3.86 1.727-3.86 3.857c0 2.131 1.73 3.858 3.86 3.858z"/><path d="m1287.55 506.816c2.13 0 3.86-1.727 3.86-3.858 0-2.13-1.73-3.857-3.86-3.857s-3.86 1.727-3.86 3.857c0 2.131 1.73 3.858 3.86 3.858z"/><path d="m1310.56 506.816c2.13 0 3.85-1.727 3.85-3.858 0-2.13-1.72-3.857-3.85-3.857s-3.86 1.727-3.86 3.857c0 2.131 1.73 3.858 3.86 3.858z"/><path d="m1149.22 530.224c2.13 0 3.86-1.726 3.86-3.857 0-2.13-1.73-3.857-3.86-3.857s-3.86 1.727-3.86 3.857c0 2.131 1.73 3.857 3.86 3.857z"/><path d="m1172.23 530.225c2.13 0 3.86-1.727 3.86-3.858 0-2.13-1.73-3.857-3.86-3.857s-3.86 1.727-3.86 3.857c0 2.131 1.73 3.858 3.86 3.858z"/><path d="m1195.37 530.225c2.14 0 3.86-1.727 3.86-3.858 0-2.13-1.72-3.857-3.86-3.857-2.13 0-3.85 1.727-3.85 3.857 0 2.131 1.72 3.858 3.85 3.858z"/><path d="m1218.38 530.225c2.14 0 3.86-1.727 3.86-3.858 0-2.13-1.72-3.857-3.86-3.857-2.13 0-3.85 1.727-3.85 3.857 0 2.131 1.72 3.858 3.85 3.858z"/><path d="m1241.39 530.225c2.14 0 3.86-1.727 3.86-3.858 0-2.13-1.72-3.857-3.86-3.857-2.13 0-3.85 1.727-3.85 3.857 0 2.131 1.72 3.858 3.85 3.858z"/><path d="m1264.54 530.225c2.13 0 3.85-1.727 3.85-3.858 0-2.13-1.72-3.857-3.85-3.857s-3.86 1.727-3.86 3.857c0 2.131 1.73 3.858 3.86 3.858z"/><path d="m1287.55 530.225c2.13 0 3.86-1.727 3.86-3.858 0-2.13-1.73-3.857-3.86-3.857s-3.86 1.727-3.86 3.857c0 2.131 1.73 3.858 3.86 3.858z"/><path d="m1310.56 530.225c2.13 0 3.85-1.727 3.85-3.858 0-2.13-1.72-3.857-3.85-3.857s-3.86 1.727-3.86 3.857c0 2.131 1.73 3.858 3.86 3.858z"/><path d="m1149.22 553.634c2.13 0 3.86-1.727 3.86-3.857 0-2.131-1.73-3.858-3.86-3.858s-3.86 1.727-3.86 3.858c0 2.13 1.73 3.857 3.86 3.857z"/><path d="m1172.23 553.634c2.13 0 3.86-1.727 3.86-3.857 0-2.131-1.73-3.858-3.86-3.858s-3.86 1.727-3.86 3.858c0 2.13 1.73 3.857 3.86 3.857z"/><path d="m1195.37 553.634c2.14 0 3.86-1.727 3.86-3.857 0-2.131-1.72-3.858-3.86-3.858-2.13 0-3.85 1.727-3.85 3.858 0 2.13 1.72 3.857 3.85 3.857z"/><path d="m1218.38 553.634c2.14 0 3.86-1.727 3.86-3.857 0-2.131-1.72-3.858-3.86-3.858-2.13 0-3.85 1.727-3.85 3.858 0 2.13 1.72 3.857 3.85 3.857z"/><path d="m1241.39 553.634c2.14 0 3.86-1.727 3.86-3.857 0-2.131-1.72-3.858-3.86-3.858-2.13 0-3.85 1.727-3.85 3.858 0 2.13 1.72 3.857 3.85 3.857z"/><path d="m1264.54 553.634c2.13 0 3.85-1.727 3.85-3.857 0-2.131-1.72-3.858-3.85-3.858s-3.86 1.727-3.86 3.858c0 2.13 1.73 3.857 3.86 3.857z"/><path d="m1287.55 553.634c2.13 0 3.86-1.727 3.86-3.857 0-2.131-1.73-3.858-3.86-3.858s-3.86 1.727-3.86 3.858c0 2.13 1.73 3.857 3.86 3.857z"/><path d="m1310.56 553.634c2.13 0 3.85-1.727 3.85-3.857 0-2.131-1.72-3.858-3.85-3.858s-3.86 1.727-3.86 3.858c0 2.13 1.73 3.857 3.86 3.857z"/><path d="m1149.22 577.043c2.13 0 3.86-1.727 3.86-3.857 0-2.131-1.73-3.857-3.86-3.857s-3.86 1.726-3.86 3.857c0 2.13 1.73 3.857 3.86 3.857z"/><path d="m1172.23 577.043c2.13 0 3.86-1.727 3.86-3.857 0-2.131-1.73-3.858-3.86-3.858s-3.86 1.727-3.86 3.858c0 2.13 1.73 3.857 3.86 3.857z"/><path d="m1195.37 577.043c2.14 0 3.86-1.727 3.86-3.857 0-2.131-1.72-3.858-3.86-3.858-2.13 0-3.85 1.727-3.85 3.858 0 2.13 1.72 3.857 3.85 3.857z"/><path d="m1218.38 577.043c2.14 0 3.86-1.727 3.86-3.857 0-2.131-1.72-3.858-3.86-3.858-2.13 0-3.85 1.727-3.85 3.858 0 2.13 1.72 3.857 3.85 3.857z"/><path d="m1241.39 577.043c2.14 0 3.86-1.727 3.86-3.857 0-2.131-1.72-3.858-3.86-3.858-2.13 0-3.85 1.727-3.85 3.858 0 2.13 1.72 3.857 3.85 3.857z"/><path d="m1264.54 577.043c2.13 0 3.85-1.727 3.85-3.857 0-2.131-1.72-3.858-3.85-3.858s-3.86 1.727-3.86 3.858c0 2.13 1.73 3.857 3.86 3.857z"/><path d="m1287.55 577.043c2.13 0 3.86-1.727 3.86-3.857 0-2.131-1.73-3.858-3.86-3.858s-3.86 1.727-3.86 3.858c0 2.13 1.73 3.857 3.86 3.857z"/><path d="m1310.56 577.043c2.13 0 3.85-1.727 3.85-3.857 0-2.131-1.72-3.858-3.85-3.858s-3.86 1.727-3.86 3.858c0 2.13 1.73 3.857 3.86 3.857z"/></g><path d="m279.098 730v-195.253l-84.059-83.926v-226.243" stroke="#2e3577" stroke-miterlimit="10" stroke-width="2.66011"/><path d="m247.576 295.071h-189.0011c-5.8522 0-10.6405-4.788-10.6405-10.641v-189.0007c0-5.8523 4.7883-10.6405 10.6405-10.6405h189.0011c5.852 0 10.641 4.7882 10.641 10.6405v189.0007c0 5.853-4.789 10.641-10.641 10.641z" fill="#2a2d6e"/><path d="m568.253 730v-206.292l-130.346-130.346" stroke="#2e3577" stroke-miterlimit="10" stroke-width="2.66011"/><path d="m578.228 428.077h-280.775c-5.852 0-10.64-4.789-10.64-10.641v-133.804c0-5.852 4.788-10.64 10.64-10.64h280.908c5.853 0 10.641 4.788 10.641 10.64v133.804c-.133 5.985-4.788 10.641-10.774 10.641z" fill="#2e3577"/><path d="m551.494 306.509h-227.307v7.049h227.307z" fill="#2a2d6e"/><path d="m477.809 323.8h-42.562c-2.926 0-5.32-2.394-5.32-5.32v-17.025c0-2.926 2.394-5.32 5.32-5.32h42.562c2.926 0 5.32 2.394 5.32 5.32v17.025c0 2.926-2.394 5.32-5.32 5.32z" fill="#252967"/><path d="m551.494 347.076h-227.307v7.049h227.307z" fill="#2a2d6e"/><path d="m506.671 364.367h-42.562c-2.926 0-5.32-2.394-5.32-5.32v-17.025c0-2.926 2.394-5.32 5.32-5.32h42.562c2.926 0 5.32 2.394 5.32 5.32v17.025c0 3.059-2.394 5.32-5.32 5.32z" fill="#252967"/><path d="m551.494 387.643h-227.307v7.049h227.307z" fill="#2a2d6e"/><path d="m389.094 405.067h-42.562c-2.926 0-5.32-2.395-5.32-5.321v-17.024c0-2.927 2.394-5.321 5.32-5.321h42.562c2.926 0 5.32 2.394 5.32 5.321v17.024c0 2.926-2.394 5.321-5.32 5.321z" fill="#252967"/><path d="m502.681 344.283v12.636" stroke="#363e84" stroke-miterlimit="10" stroke-width="2.66011"/><path d="m385.104 384.85v12.635" stroke="#363e84" stroke-miterlimit="10" stroke-width="2.66011"/><path d="m473.819 303.716v12.636" stroke="#363e84" stroke-miterlimit="10" stroke-width="2.66011"/><path d="m229.886 104.075v163.597h-153.7543v-205.0952h112.3903z" fill="#2e3577"/><path d="m229.886 104.075h-41.364v-41.4982z" fill="#2e3577"/><path d="m146.891 116.311h-46.685c-3.4584 0-6.1185-2.793-6.1185-6.118 0-3.458 2.7931-6.118 6.1185-6.118h46.685c3.458 0 6.118 2.793 6.118 6.118s-2.66 6.118-6.118 6.118z" fill="#2a2d6e"/><path d="m94.0875 135.597h119.5725" stroke="#2a2d6e" stroke-miterlimit="10" stroke-width="2.66011"/><path d="m94.0875 155.016h87.6505" stroke="#2a2d6e" stroke-miterlimit="10" stroke-width="2.66011"/><path d="m94.0875 174.301h57.1925" stroke="#2a2d6e" stroke-miterlimit="10" stroke-width="2.66011"/><path d="m162.984 174.301h48.946" stroke="#2a2d6e" stroke-miterlimit="10" stroke-width="2.66011"/><path d="m94.0875 193.587h117.8435" stroke="#2a2d6e" stroke-miterlimit="10" stroke-width="2.66011"/><path d="m94.0875 213.006h44.5565" stroke="#2a2d6e" stroke-miterlimit="10" stroke-width="2.66011"/><path d="m368.212 229.366h-70.759c-5.852 0-10.64-4.788-10.64-10.64v-70.759c0-5.853 4.788-10.641 10.64-10.641h70.759c5.853 0 10.641 4.788 10.641 10.641v70.759c0 5.852-4.788 10.64-10.641 10.64z" fill="#2e3577"/><path d="m365.286 187.203v-7.581l-6.384-2.394c-.665-2.793-1.729-5.453-3.325-7.98l2.793-6.252-5.32-5.32-6.252 2.793c-2.394-1.463-5.054-2.66-7.98-3.325l-2.394-6.384h-7.581l-2.395 6.384c-2.793.665-5.453 1.729-7.98 3.325l-6.251-2.793-5.32 5.32 2.793 6.252c-1.463 2.394-2.66 5.054-3.325 7.98l-6.385 2.394v7.581l6.385 2.394c.665 2.794 1.729 5.454 3.325 7.981l-2.793 6.251 5.32 5.32 6.251-2.793c2.394 1.463 5.054 2.66 7.98 3.325l2.395 6.385h7.581l2.394-6.385c2.793-.665 5.453-1.729 7.98-3.325l6.252 2.793 5.32-5.32-2.793-6.251c1.463-2.394 2.66-5.054 3.325-7.981zm-32.453 14.764c-10.242 0-18.621-8.379-18.621-18.621 0-10.241 8.379-18.621 18.621-18.621 10.241 0 18.621 8.38 18.621 18.621 0 10.242-8.38 18.621-18.621 18.621z" fill="#2a2d6e"/><path d="m34.574 175.527-9.4989 9.499 59.0623 59.062 9.4989-9.499z" fill="#252967"/><path d="m93.5555 234.553-9.4434 9.444 15.5616 6.118z" fill="#363e84"/><path d="m25.0574 170.311-5.1872 5.188c-1.1971 1.197-1.1971 3.059 0 4.256l5.1872 5.187 9.4434-9.443-5.1872-5.188c-1.064-1.197-3.0591-1.197-4.2562 0z" fill="#363e84"/><path d="m212.463 228.302h-54.533v21.68h54.533z" fill="#2a2d6e"/><path d="m139.575 233.356c15.695 4.522 33.252 2.527 47.616-5.054 3.193-1.729.799-6.651-2.394-5.055 0 0 0 0-.133 0-2.66 1.331-4.389 3.858-5.985 6.385-4.788 7.315-9.576 14.63-14.365 22.079 2.927-5.587 7.582-10.242 13.035-13.301 1.729-.931 3.857-1.729 5.586-.798 1.33.798 1.862 2.394 2.793 3.591 2.661 3.724 8.114 4.522 12.503 2.926s7.714-4.921 11.039-8.246" stroke="#2e3577" stroke-miterlimit="10" stroke-width="2.66011"/><path d="m568.253 637.561h-147.237v92.439" stroke="#2e3577" stroke-miterlimit="10" stroke-width="2.66011"/><path d="m601.371 730v-219.06l81.4-81.267h50.143" stroke="#2e3577" stroke-miterlimit="10" stroke-width="2.66011"/><path d="m667.209 730v-179.425l212.942-212.942v-121.701" stroke="#2e3577" stroke-miterlimit="10" stroke-width="2.66011"/><path d="m912.339 61.3795v230.3655c0 5.853-4.789 10.641-10.641 10.641h-230.499c-5.852 0-10.64-4.788-10.64-10.641v-230.3655c0-5.8522 4.788-10.6405 10.64-10.6405h230.366c5.985 0 10.774 4.7883 10.774 10.6405z" fill="#2e3577"/><path d="m1357.38 356.918h-203.64c-5.85 0-10.64-4.788-10.64-10.64v-142.05c0-5.852 4.79-10.641 10.64-10.641h203.64c5.85 0 10.64 4.789 10.64 10.641v141.917c0 5.985-4.66 10.773-10.64 10.773z" fill="#2e3577"/><path d="m379.119 625.191h-173.44c-5.852 0-10.64-4.788-10.64-10.64v-76.878c0-5.852 4.788-10.64 10.64-10.64h173.44c5.852 0 10.64 4.788 10.64 10.64v76.878c0 5.852-4.788 10.64-10.64 10.64z" fill="#2e3577"/><path d="m1396.48 511.072h-173.57c-5.86 0-10.64-4.788-10.64-10.64v-101.351c0-5.852 4.78-10.64 10.64-10.64h173.57c5.85 0 10.64 4.788 10.64 10.64v101.351c0 5.852-4.79 10.64-10.64 10.64z" fill="#2a2d6e"/><path d="m1235.54 445.634v279.179" stroke="#2e3577" stroke-miterlimit="10" stroke-width="2.66011"/><path d="m1069.68 72.5521v125.9559l-48.54-48.547-108.801 108.799-.665.532-68.365-68.232-111.459 111.326h-56.793l168.252-168.252 68.365 68.365.665-.665 80.335-80.336-48.946-48.9459z" fill="#363e84"/><path d="m693.145 88.6458h86.321" stroke="#2a2d6e" stroke-miterlimit="10" stroke-width="2.66011"/><path d="m693.145 107.799h86.321" stroke="#2a2d6e" stroke-miterlimit="10" stroke-width="2.66011"/><path d="m693.145 126.951h65.306" stroke="#2a2d6e" stroke-miterlimit="10" stroke-width="2.66011"/><path d="m912.339 75.4781c13.663 0 24.739-11.076 24.739-24.739s-11.076-24.7391-24.739-24.7391-24.739 11.0761-24.739 24.7391 11.076 24.739 24.739 24.739z" fill="#252967"/><path d="m912.339 66.6999c8.814 0 15.96-7.1458 15.96-15.9607 0-8.8148-7.146-15.9607-15.96-15.9607-8.815 0-15.961 7.1459-15.961 15.9607 0 8.8149 7.146 15.9607 15.961 15.9607z" fill="#252967"/><path d="m912.339 58.9852c4.554 0 8.246-3.692 8.246-8.2464 0-4.5543-3.692-8.2463-8.246-8.2463-4.555 0-8.247 3.692-8.247 8.2463 0 4.5544 3.692 8.2464 8.247 8.2464z" fill="#252967"/><path d="m721.609 146.902h-93.238v59.454h93.238z" fill="#363e84"/><path d="m628.371 206.223v17.423l15.296-17.423z" fill="#363e84"/><path d="m1419.49 144.774h-191.53v15.163h191.53z" fill="#363e84"/><path d="m1447.02 159.937h-219.06v139.523h219.06z" fill="#363e84"/><path d="m1213.2 239.208h-108.27c-1.99 0-3.46-1.596-3.46-3.458 0-1.995 1.6-3.458 3.46-3.458h108.27c1.99 0 3.46 1.596 3.46 3.458s-1.6 3.458-3.46 3.458z" fill="#363e84"/><path d="m1155.47 255.036h-50.67c-2 0-3.46-1.596-3.46-3.458 0-1.995 1.6-3.458 3.46-3.458h50.67c2 0 3.46 1.596 3.46 3.458.13 1.862-1.46 3.458-3.46 3.458z" fill="#363e84"/><path d="m1213.2 255.036h-42.7c-1.99 0-3.46-1.596-3.46-3.458 0-1.995 1.6-3.458 3.46-3.458h42.7c1.99 0 3.46 1.596 3.46 3.458s-1.6 3.458-3.46 3.458z" fill="#363e84"/><path d="m1118.23 270.864h-13.43c-2 0-3.46-1.596-3.46-3.459 0-1.995 1.6-3.458 3.46-3.458h13.43c2 0 3.46 1.596 3.46 3.458.13 1.863-1.46 3.459-3.46 3.459z" fill="#363e84"/><path d="m1186.6 270.864h-53.34c-1.99 0-3.46-1.596-3.46-3.458 0-1.996 1.6-3.459 3.46-3.459h53.34c1.99 0 3.45 1.596 3.45 3.459 0 1.862-1.59 3.458-3.45 3.458z" fill="#363e84"/><path d="m1195.37 286.692h-90.57c-2 0-3.46-1.596-3.46-3.458 0-1.996 1.6-3.459 3.46-3.459h90.57c2 0 3.46 1.596 3.46 3.459.14 1.862-1.46 3.458-3.46 3.458z" fill="#363e84"/><path d="m1168.77 302.519h-63.97c-2 0-3.46-1.596-3.46-3.458 0-1.995 1.6-3.458 3.46-3.458h63.97c2 0 3.46 1.596 3.46 3.458.13 1.862-1.46 3.458-3.46 3.458z" fill="#363e84"/><path d="m1205.22 302.519h-21.42c-1.99 0-3.45-1.596-3.45-3.458 0-1.995 1.59-3.458 3.45-3.458h21.42c1.99 0 3.46 1.596 3.46 3.458s-1.6 3.458-3.46 3.458z" fill="#363e84"/><path d="m1118.23 318.214h-13.43c-2 0-3.46-1.596-3.46-3.458 0-1.995 1.6-3.458 3.46-3.458h13.43c2 0 3.46 1.596 3.46 3.458.13 1.995-1.46 3.458-3.46 3.458z" fill="#363e84"/><path d="m1173.3 318.214h-40.04c-1.99 0-3.46-1.596-3.46-3.458 0-1.995 1.6-3.458 3.46-3.458h40.04c1.99 0 3.45 1.596 3.45 3.458 0 1.995-1.59 3.458-3.45 3.458z" fill="#363e84"/><path d="m1097.22 560.151h86.98v-203.151" stroke="#2e3577" stroke-miterlimit="10" stroke-width="2.66011"/><path d="m1025.13 730v-169.849" stroke="#2e3577" stroke-miterlimit="10" stroke-width="2.66011"/><path d="m1101.07 629.846h-360.841c-5.852 0-10.64-4.788-10.64-10.64v-272.662c0-5.852 4.788-10.64 10.64-10.64h360.841c5.86 0 10.64 4.788 10.64 10.64v272.529c0 5.985-4.78 10.773-10.64 10.773z" fill="#2e3577"/><path d="m1073.36 663h-96.717c-5.854 0-10.643-6.169-10.643-13.709v-124.582c0-7.54 4.789-13.709 10.643-13.709h96.717c5.85 0 10.64 6.169 10.64 13.709v124.582c0 7.54-4.79 13.709-10.64 13.709z" fill="#2a2d6e"/><path d="m1060.51 591.541c17.55-27.4-.14-64.508-32.59-66.503-.93 0-1.86-.133-2.79-.133s-1.86 0-2.8.133c-32.449 1.862-50.139 39.103-32.582 66.503l35.382 54.931z" fill="#363e84"/><path d="m1025.13 594.866c15.2 0 27.53-12.327 27.53-27.532 0-15.206-12.33-27.532-27.53-27.532-15.21 0-27.535 12.326-27.535 27.532 0 15.205 12.325 27.532 27.535 27.532z" stroke="#2a2d6e" stroke-miterlimit="10" stroke-width="2.66011"/><path d="m1025.13 594.866c7.86 0 14.23-12.327 14.23-27.532 0-15.206-6.37-27.532-14.23-27.532s-14.23 12.326-14.23 27.532c0 15.205 6.37 27.532 14.23 27.532z" stroke="#2a2d6e" stroke-miterlimit="10" stroke-width="2.66011"/><path d="m1025.13 539.802v55.064" stroke="#2a2d6e" stroke-miterlimit="10" stroke-width="2.66011"/><path d="m997.595 567.334h55.195" stroke="#2a2d6e" stroke-miterlimit="10" stroke-width="2.66011"/><path d="m1447.02 144.774h-27.66v15.163h27.66z" fill="#252967"/><path d="m1298.32 191.992v13.832l-23.81 23.808 23.81 23.808v13.966l-37.77-37.774z" fill="#2a2d6e"/><path d="m1376.66 267.406v-13.966l23.81-23.808-23.81-23.808v-13.832l37.78 37.64z" fill="#2a2d6e"/><path d="m1312.95 267.406h11.84l37.11-75.414h-11.84z" fill="#2a2d6e"/><path d="m1381.93 405h-156.35c-4.19 0-7.58 3.394-7.58 7.581v87.465c0 4.187 3.39 7.581 7.58 7.581h156.35c4.19 0 7.58-3.394 7.58-7.581v-87.465c0-4.187-3.39-7.581-7.58-7.581z" fill="#2e3577"/></g></svg>